<svg width="1600" height="900" viewBox="0 0 1600 900" xmlns="http://www.w3.org/2000/svg">
  <defs>
    <linearGradient id="heroGradient" x1="0%" y1="0%" x2="100%" y2="100%">
      <stop offset="0%" style="stop-color:#1a2236;stop-opacity:1" />
      <stop offset="50%" style="stop-color:#27324a;stop-opacity:1" />
      <stop offset="100%" style="stop-color:#000000;stop-opacity:1" />
    </linearGradient>
    <linearGradient id="accentGradient" x1="0%" y1="0%" x2="100%" y2="0%">
      <stop offset="0%" style="stop-color:#ccff0a;stop-opacity:1" />
      <stop offset="100%" style="stop-color:#b3ff00;stop-opacity:1" />
    </linearGradient>
  </defs>
  
  <rect width="1600" height="900" fill="url(#heroGradient)"/>
  
  <!-- Dashboard mockup -->
  <rect x="200" y="150" width="1200" height="600" rx="20" fill="#27324a" stroke="#ccff0a" stroke-width="2"/>
  
  <!-- Header bar -->
  <rect x="220" y="170" width="1160" height="60" rx="10" fill="#3a4861"/>
  <text x="240" y="205" font-family="system-ui, sans-serif" font-size="24" font-weight="bold" fill="#ccff0a">DirectoryBolt Dashboard</text>
  
  <!-- Content areas -->
  <rect x="240" y="250" width="360" height="120" rx="8" fill="#4f5f7b"/>
  <rect x="620" y="250" width="360" height="120" rx="8" fill="#4f5f7b"/>
  <rect x="1000" y="250" width="360" height="120" rx="8" fill="#4f5f7b"/>
  
  <!-- Progress bars -->
  <rect x="260" y="280" width="280" height="8" rx="4" fill="#1a2236"/>
  <rect x="260" y="280" width="200" height="8" rx="4" fill="url(#accentGradient)"/>
  
  <rect x="640" y="280" width="280" height="8" rx="4" fill="#1a2236"/>
  <rect x="640" y="280" width="240" height="8" rx="4" fill="url(#accentGradient)"/>
  
  <rect x="1020" y="280" width="280" height="8" rx="4" fill="#1a2236"/>
  <rect x="1020" y="280" width="160" height="8" rx="4" fill="url(#accentGradient)"/>
  
  <!-- Metrics -->
  <text x="260" y="310" font-family="system-ui, sans-serif" font-size="14" fill="#ccff0a">500+ Directories</text>
  <text x="260" y="330" font-family="system-ui, sans-serif" font-size="12" fill="#b9c0cf">Submitted</text>
  
  <text x="640" y="310" font-family="system-ui, sans-serif" font-size="14" fill="#ccff0a">98% Success Rate</text>
  <text x="640" y="330" font-family="system-ui, sans-serif" font-size="12" fill="#b9c0cf">Approved</text>
  
  <text x="1020" y="310" font-family="system-ui, sans-serif" font-size="14" fill="#ccff0a">+247% Visibility</text>
  <text x="1020" y="330" font-family="system-ui, sans-serif" font-size="12" fill="#b9c0cf">Increase</text>
  
  <!-- Directory listing -->
  <rect x="240" y="400" width="1120" height="300" rx="8" fill="#3a4861"/>
  <text x="260" y="430" font-family="system-ui, sans-serif" font-size="18" font-weight="bold" fill="#ccff0a">Recent Submissions</text>
  
  <!-- List items -->
  <rect x="260" y="450" width="1080" height="40" rx="4" fill="#4f5f7b"/>
  <circle cx="280" cy="470" r="8" fill="#ccff0a"/>
  <text x="300" y="475" font-family="system-ui, sans-serif" font-size="14" fill="#ffffff">Google Business Profile - Approved</text>
  
  <rect x="260" y="500" width="1080" height="40" rx="4" fill="#4f5f7b"/>
  <circle cx="280" cy="520" r="8" fill="#ccff0a"/>
  <text x="300" y="525" font-family="system-ui, sans-serif" font-size="14" fill="#ffffff">Yelp Business - Approved</text>
  
  <rect x="260" y="550" width="1080" height="40" rx="4" fill="#4f5f7b"/>
  <circle cx="280" cy="570" r="8" fill="#ccff0a"/>
  <text x="300" y="575" font-family="system-ui, sans-serif" font-size="14" fill="#ffffff">Yellow Pages - Approved</text>
  
  <rect x="260" y="600" width="1080" height="40" rx="4" fill="#4f5f7b"/>
  <circle cx="280" cy="620" r="8" fill="#e0ff33"/>
  <text x="300" y="625" font-family="system-ui, sans-serif" font-size="14" fill="#ffffff">Crunchbase - Pending</text>
  
  <rect x="260" y="650" width="1080" height="40" rx="4" fill="#4f5f7b"/>
  <circle cx="280" cy="670" r="8" fill="#ccff0a"/>
  <text x="300" y="675" font-family="system-ui, sans-serif" font-size="14" fill="#ffffff">Product Hunt - Approved</text>
</svg>